<svg width="140" height="74" viewBox="0 0 140 74" fill="none" xmlns="http://www.w3.org/2000/svg">
<g clip-path="url(#clip0)">
<path d="M4.5 49L126 49L123 61L1.50001 61L4.5 49Z" fill="#605C4E"/>
<path d="M14.5 9L136 9.50002L126 49.0063L4.49998 49.0063L14.5 9Z" fill="#244652"/>
<g filter="url(#filter0_d)">
<path d="M21.3234 54.002L28.9291 18.3138L39.3291 18.33C42.7291 18.3353 45.4615 18.9563 47.5262 20.1928C49.591 21.396 50.6212 23.431 50.6167 26.2976C50.6129 28.731 49.9265 30.7299 48.5573 32.2944C47.1882 33.859 45.2699 34.906 42.8024 35.4355L42.8021 35.6355C44.4348 36.0713 45.7335 36.8734 46.6984 38.0415C47.6633 39.1764 48.1443 40.6271 48.1416 42.3938C48.1374 45.0938 47.5172 47.3095 46.2812 49.0409C45.0452 50.739 43.3599 52.003 41.2253 52.833C39.124 53.6297 36.7401 54.026 34.0734 54.0219L21.3234 54.002ZM33.357 32.4707L37.007 32.4764C38.7737 32.4792 40.1909 32.1314 41.2587 31.433C42.3598 30.7014 42.9117 29.519 42.9142 27.8856C42.9177 25.6523 41.5361 24.5335 38.7694 24.5292L35.0695 24.5234L33.357 32.4707ZM30.0832 47.7656L34.4832 47.7725C36.3165 47.7754 37.7839 47.3276 38.8853 46.4294C40.0201 45.4978 40.5888 44.1653 40.5915 42.432C40.5935 41.1654 40.2283 40.1981 39.496 39.5303C38.7638 38.8292 37.6477 38.4774 36.1477 38.4751L32.0977 38.4688L30.0832 47.7656ZM60.6292 54.0633L57.585 18.3585L64.785 18.3697L66.0014 39.8717C66.0665 40.9051 66.0813 42.0718 66.0459 43.3717C66.0439 44.6717 66.0088 45.805 65.9406 46.7716L66.1406 46.7719C66.509 45.6725 66.9108 44.5398 67.3459 43.3738C67.8145 42.1745 68.3163 41.0086 68.8514 39.8761L79.3849 18.3925L87.0849 18.4045L68.7792 54.076L60.6292 54.0633ZM92.1214 54.1124L89.0771 18.4076L96.2771 18.4189L97.4935 39.9208C97.5586 40.9542 97.5734 42.1209 97.5381 43.4209C97.5361 44.7209 97.501 45.8542 97.4328 46.8207L97.6328 46.821C98.0012 45.7216 98.4029 44.5889 98.8381 43.4229C99.3066 42.2236 99.8084 41.0578 100.344 39.9253L110.877 18.4417L118.577 18.4537L100.271 54.1252L92.1214 54.1124Z" fill="white"/>
</g>
</g>
<defs>
<filter id="filter0_d" x="21.3234" y="18.3138" width="100.254" height="38.8114" filterUnits="userSpaceOnUse" color-interpolation-filters="sRGB">
<feFlood flood-opacity="0" result="BackgroundImageFix"/>
<feColorMatrix in="SourceAlpha" type="matrix" values="0 0 0 0 0 0 0 0 0 0 0 0 0 0 0 0 0 0 127 0"/>
<feOffset dx="2" dy="2"/>
<feGaussianBlur stdDeviation="0.5"/>
<feColorMatrix type="matrix" values="0 0 0 0 0.0875 0 0 0 0 0.0357292 0 0 0 0 0.0357292 0 0 0 0.32 0"/>
<feBlend mode="darken" in2="BackgroundImageFix" result="effect1_dropShadow"/>
<feBlend mode="normal" in="SourceGraphic" in2="effect1_dropShadow" result="shape"/>
</filter>
<clipPath id="clip0">
<rect width="138.99" height="73.0187" fill="white" transform="translate(0.124268 0.764465) rotate(0.0894104)"/>
</clipPath>
</defs>
</svg>
